<?xml version="1.0" encoding="utf-8"?>
<!-- Generator: Adobe Illustrator 16.0.0, SVG Export Plug-In . SVG Version: 6.00 Build 0)  -->
<!DOCTYPE svg PUBLIC "-//W3C//DTD SVG 1.1//EN" "http://www.w3.org/Graphics/SVG/1.1/DTD/svg11.dtd">
<svg version="1.1" id="Layer_1" xmlns="http://www.w3.org/2000/svg" xmlns:xlink="http://www.w3.org/1999/xlink" x="0px" y="0px"
	 width="128px" height="128px" viewBox="0 0 128 128" enable-background="new 0 0 128 128" xml:space="preserve">
<path fill-rule="evenodd" clip-rule="evenodd" fill="#676866" d="M16.372,4.878h93.52c6.968,0,12.553,5.592,12.553,12.569v93.568
	c0,6.521-5.585,12.107-12.553,12.107h-93.52c-6.984,0-12.092-5.586-12.092-12.107V17.447C4.279,10.47,9.387,4.878,16.372,4.878
	L16.372,4.878z"/>
<path fill-rule="evenodd" clip-rule="evenodd" fill="#FFFFFF" d="M57.308,50.5v-5.123h11.63V50.5H57.308z M48.478,35.601
	c0.462-0.922,0.923-1.861,1.862-2.785c0.922-0.938,2.323-1.399,3.246-1.861c1.399-0.469,2.8-0.938,4.662-1.399
	c1.861,0,3.262,0,5.106,0c4.662,0,8.385,0.461,10.708,1.399c2.323,0.923,3.723,2.323,3.723,3.724c0,0.922-0.462,1.861-1.399,2.784
	c-0.924,0.939-2.323,1.87-3.246,2.332c-0.478,0.469-0.938,0.469-1.4,0.931c-0.461,0-0.938,0.469-1.4,0.469
	c-0.461,0.462-0.922,0.931-0.922,0.931c0,0.462-0.478,0.931-0.478,1.393v0.469h-11.63v-0.469c0-0.462,0.477-0.931,0.477-1.393
	c0-0.469,0.462-0.931,0.923-1.399c0-0.462,0.922-0.931,1.4-1.393c0.923-0.47,1.4-0.931,2.785-1.87c0.46,0,0.938-0.461,1.399-0.922
	c0.462-0.47,0.939-0.939,0.939-1.4c0-0.461-0.477-0.461-0.477-0.931c-0.462,0-1.401,0-1.861,0c-0.462,0-1.384,0-1.861,0.47
	c-0.923,0-1.401,0.922-1.401,1.861L48.478,35.601z M63.354,25.832c-19.06,0-35.353,6.516-35.353,14.431
	c0,7.907,16.292,14.431,35.353,14.431c18.615,0,34.907-6.524,34.907-14.431C98.261,32.347,81.969,25.832,63.354,25.832
	L63.354,25.832z"/>
<path fill-rule="evenodd" clip-rule="evenodd" fill="#95D0EA" d="M63.354,92.861c13.031,0,27-3.262,34.907-8.846v3.723
	c0,7.908-16.292,14.43-34.907,14.43c-19.06,0-35.353-6.521-35.353-14.43v-3.723C35.909,89.6,49.862,92.861,63.354,92.861
	L63.354,92.861z"/>
<path fill-rule="evenodd" clip-rule="evenodd" fill="#95D0EA" d="M63.354,60.739c13.031,0,27-2.792,34.907-8.846v4.192
	c0,7.915-16.292,14.43-34.907,14.43c-19.06,0-35.353-6.515-35.353-14.43v-4.192C35.909,57.947,49.862,60.739,63.354,60.739
	L63.354,60.739z"/>
<path fill-rule="evenodd" clip-rule="evenodd" fill="#95D0EA" d="M63.354,76.568c13.031,0,27-2.791,34.907-8.846v4.193
	c0,7.916-16.292,14.422-34.907,14.422c-19.06,0-35.353-6.506-35.353-14.422v-4.193C35.909,73.777,49.862,76.568,63.354,76.568
	L63.354,76.568z"/>
</svg>
